<svg width="34" height="34" viewBox="0 0 34 34" fill="none" xmlns="http://www.w3.org/2000/svg">
<path d="M16.9985 10.4507C13.3803 10.4507 10.4492 13.3832 10.4492 16.9999C10.4492 20.6181 13.3803 23.5506 16.9985 23.5506C20.6138 23.5506 23.5477 20.6181 23.5477 16.9999C23.5477 13.3832 20.6138 10.4507 16.9985 10.4507ZM16.9985 21.2556C14.6482 21.2556 12.7428 19.3502 12.7428 17.0014C12.7428 14.6511 14.6482 12.7471 16.9985 12.7471C19.3487 12.7471 21.2513 14.6511 21.2513 17.0014C21.2513 19.3502 19.3487 21.2556 16.9985 21.2556Z"/>
<path d="M23.8084 11.7369C24.6518 11.7369 25.3356 11.0532 25.3356 10.2098C25.3356 9.36635 24.6518 8.68262 23.8084 8.68262C22.965 8.68262 22.2812 9.36635 22.2812 10.2098C22.2812 11.0532 22.965 11.7369 23.8084 11.7369Z"/>
<path d="M29.0885 8.65749C28.4241 6.94474 27.0712 5.59041 25.3584 4.92882C24.3682 4.55624 23.3213 4.35649 22.2616 4.33382C20.8973 4.27432 20.4653 4.25732 17.0058 4.25732C13.5463 4.25732 13.1028 4.25732 11.7499 4.33382C10.6931 4.35507 9.64618 4.55482 8.65593 4.92882C6.94176 5.59041 5.58885 6.94474 4.92585 8.65749C4.55326 9.64916 4.35351 10.6947 4.33226 11.7543C4.27135 13.1172 4.25293 13.5492 4.25293 17.0102C4.25293 20.4697 4.25293 20.9102 4.33226 22.266C4.35351 23.3257 4.55326 24.3712 4.92585 25.3642C5.59026 27.0756 6.94318 28.4299 8.65735 29.0929C9.64335 29.4782 10.6903 29.6964 11.7528 29.7304C13.117 29.7899 13.5491 29.8083 17.0086 29.8083C20.4681 29.8083 20.9115 29.8083 22.2644 29.7304C23.3227 29.7092 24.3696 29.508 25.3613 29.1368C27.074 28.4724 28.4269 27.1195 29.0913 25.4067C29.4639 24.4151 29.6637 23.3696 29.6849 22.3099C29.7458 20.9471 29.7643 20.515 29.7643 17.0541C29.7643 13.5932 29.7643 13.154 29.6849 11.7982C29.6665 10.7244 29.4682 9.66049 29.0885 8.65749ZM27.363 22.1612C27.3531 22.9772 27.2058 23.7861 26.9224 24.5525C26.4903 25.6674 25.6106 26.5486 24.4971 26.9764C23.7392 27.2583 22.9402 27.4057 22.1313 27.417C20.7854 27.4793 20.4058 27.4949 16.9548 27.4949C13.5009 27.4949 13.1482 27.4949 11.7768 27.417C10.9708 27.4071 10.1689 27.2583 9.41243 26.9764C8.29468 26.55 7.40926 25.6688 6.97718 24.5525C6.69951 23.796 6.54935 22.9956 6.5366 22.1881C6.47568 20.8422 6.46151 20.4626 6.46151 17.0116C6.46151 13.5592 6.46151 13.2064 6.5366 11.8337C6.54651 11.0177 6.69385 10.2102 6.97718 9.44374C7.40926 8.32599 8.29468 7.44624 9.41243 7.01841C10.1689 6.73791 10.9708 6.58916 11.7768 6.57782C13.1241 6.51691 13.5023 6.49991 16.9548 6.49991C20.4072 6.49991 20.7613 6.49991 22.1313 6.57782C22.9402 6.58774 23.7392 6.73649 24.4971 7.01841C25.6106 7.44766 26.4903 8.32882 26.9224 9.44374C27.2001 10.2002 27.3503 11.0007 27.363 11.8082C27.4239 13.1554 27.4395 13.5337 27.4395 16.9861C27.4395 20.4371 27.4395 20.8082 27.3786 22.1626H27.363V22.1612Z"/>
</svg>
