<svg xmlns="http://www.w3.org/2000/svg" xmlns:xlink="http://www.w3.org/1999/xlink"><symbol id="btn-left"><path d="M24.243 9.5H5.337l7.448-7.448L11.263.333.951 10.646l10.312 10.312 1.522-1.718-7.448-7.448h18.906V9.5z"/></symbol><symbol id="btn-right"><path d="M.757 9.5h18.906l-7.448-7.448L13.737.333l10.312 10.313-10.312 10.312-1.522-1.718 7.448-7.448H.757V9.5z"/></symbol><symbol id="facebook" viewBox="0 0 512 512"><path d="M297.277 508.668zm0 0M302.398 507.793c-1.02.187-2.039.36-3.058.535 1.02-.176 2.039-.348 3.058-.535zm0 0M285.137 510.34zm0 0M290.055 509.738zm0 0M309.367 506.41zm0 0M326.664 502.113c-.726.207-1.453.403-2.18.606.727-.203 1.454-.399 2.18-.606zm0 0M321.434 503.543c-.79.207-1.582.418-2.375.617.793-.2 1.586-.406 2.375-.617zm0 0M314.59 505.254c-.836.195-1.68.379-2.524.566.844-.187 1.688-.37 2.524-.566zm0 0M277.527 511.09zm0 0M512 256C512 114.637 397.363 0 256 0S0 114.637 0 256s114.637 256 256 256c1.504 0 3-.031 4.5-.059V312.656h-55V248.56h55V201.39c0-54.703 33.395-84.477 82.191-84.477 23.368 0 43.454 1.742 49.309 2.52v57.171h-33.648c-26.547 0-31.688 12.618-31.688 31.13v40.824h63.477l-8.274 64.097h-55.203V502.11C433.668 471.434 512 372.852 512 256zm0 0M272.914 511.43zm0 0M264.754 511.836zm0 0"/></symbol><symbol id="instagram" viewBox="0 0 512 512"><path d="M305 256c0 27.063-21.938 49-49 49s-49-21.938-49-49 21.938-49 49-49 49 21.938 49 49zm0 0"/><path d="M370.594 169.305a45.546 45.546 0 0 0-10.996-16.903 45.514 45.514 0 0 0-16.903-10.996c-5.18-2.011-12.96-4.406-27.293-5.058-15.504-.707-20.152-.86-59.402-.86-39.254 0-43.902.149-59.402.856-14.332.656-22.118 3.05-27.293 5.062a45.483 45.483 0 0 0-16.903 10.996 45.572 45.572 0 0 0-11 16.903c-2.011 5.18-4.406 12.965-5.058 27.297-.707 15.5-.86 20.148-.86 59.402 0 39.25.153 43.898.86 59.402.652 14.332 3.047 22.114 5.058 27.293a45.563 45.563 0 0 0 10.996 16.903 45.514 45.514 0 0 0 16.903 10.996c5.18 2.015 12.965 4.41 27.297 5.062 15.5.707 20.144.856 59.398.856 39.258 0 43.906-.149 59.402-.856 14.332-.652 22.118-3.047 27.297-5.062a48.68 48.68 0 0 0 27.899-27.899c2.011-5.18 4.406-12.96 5.062-27.293.707-15.504.856-20.152.856-59.402 0-39.254-.149-43.902-.856-59.402-.652-14.332-3.047-22.118-5.062-27.297zM256 331.485c-41.691 0-75.488-33.794-75.488-75.485s33.797-75.484 75.488-75.484c41.688 0 75.484 33.793 75.484 75.484S297.688 331.484 256 331.484zm78.469-136.313c-9.742 0-17.64-7.899-17.64-17.64s7.898-17.641 17.64-17.641 17.64 7.898 17.64 17.64c-.004 9.742-7.898 17.64-17.64 17.64zm0 0"/><path d="M256 0C114.637 0 0 114.637 0 256s114.637 256 256 256 256-114.637 256-256S397.363 0 256 0zm146.113 316.605c-.71 15.649-3.199 26.333-6.832 35.684a75.164 75.164 0 0 1-42.992 42.992c-9.348 3.633-20.035 6.117-35.68 6.832-15.675.715-20.683.887-60.605.887-39.926 0-44.93-.172-60.61-.887-15.644-.715-26.331-3.199-35.68-6.832a72.018 72.018 0 0 1-26.038-16.957 72.044 72.044 0 0 1-16.953-26.035c-3.633-9.348-6.121-20.035-6.832-35.68-.723-15.68-.891-20.687-.891-60.609s.168-44.93.887-60.605c.71-15.649 3.195-26.332 6.828-35.684a72.013 72.013 0 0 1 16.96-26.035 72.003 72.003 0 0 1 26.036-16.957c9.352-3.633 20.035-6.117 35.684-6.832C211.07 109.172 216.078 109 256 109s44.93.172 60.605.89c15.649.712 26.332 3.196 35.684 6.825a72.061 72.061 0 0 1 26.04 16.96 72.027 72.027 0 0 1 16.952 26.036c3.637 9.352 6.121 20.035 6.836 35.684.715 15.675.883 20.683.883 60.605s-.168 44.93-.887 60.605zm0 0"/></symbol><symbol id="next" viewBox="0 0 240.823 240.823"><path d="M183.189 111.816L74.892 3.555c-4.752-4.74-12.451-4.74-17.215 0-4.752 4.74-4.752 12.439 0 17.179l99.707 99.671-99.695 99.671c-4.752 4.74-4.752 12.439 0 17.191 4.752 4.74 12.463 4.74 17.215 0l108.297-108.261c4.68-4.691 4.68-12.511-.012-17.19z"/></symbol><symbol id="prev" viewBox="0 0 240.823 240.823"><path d="M57.633 129.007L165.93 237.268c4.752 4.74 12.451 4.74 17.215 0 4.752-4.74 4.752-12.439 0-17.179l-99.707-99.671 99.695-99.671c4.752-4.74 4.752-12.439 0-17.191-4.752-4.74-12.463-4.74-17.215 0L57.621 111.816c-4.679 4.691-4.679 12.511.012 17.191z"/></symbol><symbol id="vk" viewBox="0 0 96 96"><path d="M48 0a48 48 0 1 0 48 48A48 48 0 0 0 48 0zm28 62.63c-.3 1.92-3.48 1.56-6.28 1.64a18.46 18.46 0 0 1-6.25-.55c-1.89-.74-6.91-7.35-8.2-7.1-2.93.6-1.87 6.69-2.71 7.1-1.29.6-5.29.44-6.86.27-8.23-1.37-13-6.85-17.44-13.93-5.51-8.61-8.77-15-7.37-15.85s5.75-.63 10.06-.55c1.32.05 5 9.4 6 11 3.89 6.22 5.1 1.62 5.18 1.07 1.16-11.23-1.59-10.73-3.2-10.96 1.18-3.62 9.57-3 9.57-3a16.34 16.34 0 0 1 3.81 1.4c.41.25.88 1.18.85 4.06-.16 4.42-.61 10.37 1.34 10.37 1.48.06 3.81-3.45 5.73-7.07 1.67-3.21 3-6.33 3.54-6.55a38.21 38.21 0 0 1 6-.3c2.63 0 5.29 0 6 .55 1.4 1.21-1.07 5-3.32 8.23-1.81 2.63-5.37 6.06-5.15 7.92.28 2.57 9.44 8.05 8.7 12.25z" data-name="Layer 2"/></symbol><symbol id="whatsApp2"><path clip-rule="evenodd" d="M22.07 3.98A12.635 12.635 0 0 0 13.076.25C6.065.25.36 5.955.356 12.967c0 2.242.585 4.429 1.697 6.358L.25 25.915l6.742-1.77a12.723 12.723 0 0 0 6.077 1.548h.006c7.008 0 12.715-5.705 12.718-12.717 0-3.397-1.32-6.592-3.722-8.996zm-8.995 19.567h-.004a10.548 10.548 0 0 1-5.38-1.475l-.386-.23-4 1.05 1.066-3.9-.25-.399a10.552 10.552 0 0 1-1.617-5.626c.003-5.828 4.744-10.57 10.575-10.57a10.502 10.502 0 0 1 7.473 3.1 10.51 10.51 0 0 1 3.093 7.479c-.003 5.828-4.745 10.571-10.57 10.571zm5.799-7.918c-.32-.16-1.88-.928-2.172-1.034-.29-.106-.502-.159-.714.159-.213.317-.822 1.033-1.008 1.245-.185.213-.37.238-.688.08-.317-.16-1.342-.495-2.556-1.577-.945-.843-1.582-1.883-1.768-2.202-.185-.319-.02-.49.14-.649.144-.141.318-.37.477-.556.158-.186.21-.318.317-.53.106-.213.054-.398-.027-.557-.08-.16-.715-1.724-.98-2.36-.257-.616-.519-.534-.714-.543a13.671 13.671 0 0 0-.608-.011c-.213 0-.557.08-.849.397-.292.318-1.112 1.086-1.112 2.65 0 1.564 1.14 3.076 1.298 3.288.159.213 2.241 3.421 5.429 4.798.759.328 1.351.523 1.811.67.761.243 1.454.207 2.002.127.61-.091 1.88-.768 2.145-1.51.265-.743.265-1.379.186-1.512-.08-.133-.294-.214-.61-.373z"/></symbol></svg>