<svg xmlns="http://www.w3.org/2000/svg" xmlns:xlink="http://www.w3.org/1999/xlink"><symbol id="btn-left"><path d="M24.243 9.5H5.337l7.448-7.448L11.263.333.951 10.646l10.312 10.312 1.522-1.718-7.448-7.448h18.906V9.5z"/></symbol><symbol id="btn-right"><path d="M.757 9.5h18.906l-7.448-7.448L13.737.333l10.312 10.313-10.312 10.312-1.522-1.718 7.448-7.448H.757V9.5z"/></symbol><symbol id="instagram"><path d="M16.998 10.45A6.549 6.549 0 0 0 10.45 17a6.55 6.55 0 1 0 13.099 0 6.55 6.55 0 0 0-6.55-6.55zm0 10.806a4.255 4.255 0 1 1 0-8.511 4.255 4.255 0 0 1 0 8.51zM23.808 11.737a1.527 1.527 0 1 0 0-3.054 1.527 1.527 0 0 0 0 3.054z"/><path d="M29.088 8.657a6.524 6.524 0 0 0-3.73-3.728 9.359 9.359 0 0 0-3.096-.595c-1.365-.06-1.797-.077-5.256-.077-3.46 0-3.903 0-5.256.077a9.285 9.285 0 0 0-3.094.595 6.516 6.516 0 0 0-3.73 3.728 9.329 9.329 0 0 0-.594 3.097c-.06 1.363-.08 1.795-.08 5.256 0 3.46 0 3.9.08 5.256a9.343 9.343 0 0 0 .594 3.098 6.53 6.53 0 0 0 3.731 3.729 9.328 9.328 0 0 0 3.096.637c1.364.06 1.796.078 5.256.078s3.902 0 5.255-.078a9.37 9.37 0 0 0 3.097-.593 6.534 6.534 0 0 0 3.73-3.73 9.326 9.326 0 0 0 .594-3.097c.06-1.363.08-1.795.08-5.256 0-3.46 0-3.9-.08-5.256a9.322 9.322 0 0 0-.596-3.14zm-1.725 13.504a7.142 7.142 0 0 1-.44 2.391 4.231 4.231 0 0 1-2.426 2.424 7.062 7.062 0 0 1-2.366.441c-1.346.062-1.725.078-5.176.078-3.454 0-3.807 0-5.178-.078a7.026 7.026 0 0 1-2.365-.44 4.228 4.228 0 0 1-2.435-2.425 7.198 7.198 0 0 1-.44-2.364c-.061-1.346-.075-1.725-.075-5.176 0-3.453 0-3.806.075-5.178.01-.816.157-1.624.44-2.39a4.23 4.23 0 0 1 2.435-2.426 7.097 7.097 0 0 1 2.365-.44c1.347-.061 1.725-.078 5.178-.078 3.452 0 3.806 0 5.176.078.81.01 1.608.158 2.366.44a4.238 4.238 0 0 1 2.425 2.426c.278.756.428 1.557.441 2.364.06 1.347.076 1.726.076 5.178 0 3.451 0 3.822-.06 5.177h-.016v-.002z"/></symbol><symbol id="next" viewBox="0 0 240.823 240.823"><path d="M183.189 111.816L74.892 3.555c-4.752-4.74-12.451-4.74-17.215 0-4.752 4.74-4.752 12.439 0 17.179l99.707 99.671-99.695 99.671c-4.752 4.74-4.752 12.439 0 17.191 4.752 4.74 12.463 4.74 17.215 0l108.297-108.261c4.68-4.691 4.68-12.511-.012-17.19z"/></symbol><symbol id="prev" viewBox="0 0 240.823 240.823"><path d="M57.633 129.007L165.93 237.268c4.752 4.74 12.451 4.74 17.215 0 4.752-4.74 4.752-12.439 0-17.179l-99.707-99.671 99.695-99.671c4.752-4.74 4.752-12.439 0-17.191-4.752-4.74-12.463-4.74-17.215 0L57.621 111.816c-4.679 4.691-4.679 12.511.012 17.191z"/></symbol><symbol id="whatsApp2"><path clip-rule="evenodd" d="M22.07 3.98A12.635 12.635 0 0 0 13.076.25C6.065.25.36 5.955.356 12.967c0 2.242.585 4.429 1.697 6.358L.25 25.915l6.742-1.77a12.723 12.723 0 0 0 6.077 1.548h.006c7.008 0 12.715-5.705 12.718-12.717 0-3.397-1.32-6.592-3.722-8.996zm-8.995 19.567h-.004a10.548 10.548 0 0 1-5.38-1.475l-.386-.23-4 1.05 1.066-3.9-.25-.399a10.552 10.552 0 0 1-1.617-5.626c.003-5.828 4.744-10.57 10.575-10.57a10.502 10.502 0 0 1 7.473 3.1 10.51 10.51 0 0 1 3.093 7.479c-.003 5.828-4.745 10.571-10.57 10.571zm5.799-7.918c-.32-.16-1.88-.928-2.172-1.034-.29-.106-.502-.159-.714.159-.213.317-.822 1.033-1.008 1.245-.185.213-.37.238-.688.08-.317-.16-1.342-.495-2.556-1.577-.945-.843-1.582-1.883-1.768-2.202-.185-.319-.02-.49.14-.649.144-.141.318-.37.477-.556.158-.186.21-.318.317-.53.106-.213.054-.398-.027-.557-.08-.16-.715-1.724-.98-2.36-.257-.616-.519-.534-.714-.543a13.671 13.671 0 0 0-.608-.011c-.213 0-.557.08-.849.397-.292.318-1.112 1.086-1.112 2.65 0 1.564 1.14 3.076 1.298 3.288.159.213 2.241 3.421 5.429 4.798.759.328 1.351.523 1.811.67.761.243 1.454.207 2.002.127.61-.091 1.88-.768 2.145-1.51.265-.743.265-1.379.186-1.512-.08-.133-.294-.214-.61-.373z"/></symbol></svg>